<mxfile host="app.diagrams.net" modified="2022-05-10T13:28:54.625Z" agent="5.0 (Macintosh; Intel Mac OS X 10_15_7) AppleWebKit/537.36 (KHTML, like Gecko) Chrome/101.0.4951.54 Safari/537.36" etag="GT3RiQrDfrbZMEL0yUb8" version="18.0.2" type="github">
  <diagram id="kgpKYQtTHZ0yAKxKKP6v" name="Page-1">
    <mxGraphModel dx="946" dy="614" grid="1" gridSize="10" guides="1" tooltips="1" connect="1" arrows="1" fold="1" page="1" pageScale="1" pageWidth="850" pageHeight="1100" math="0" shadow="0">
      <root>
        <mxCell id="0" />
        <mxCell id="1" parent="0" />
        <mxCell id="NU_LfXqsbuH4mbQh31we-3" value="" style="edgeStyle=orthogonalEdgeStyle;rounded=0;orthogonalLoop=1;jettySize=auto;html=1;" edge="1" parent="1" source="NU_LfXqsbuH4mbQh31we-1" target="NU_LfXqsbuH4mbQh31we-2">
          <mxGeometry relative="1" as="geometry" />
        </mxCell>
        <mxCell id="NU_LfXqsbuH4mbQh31we-1" value="Spring Boot" style="rounded=0;whiteSpace=wrap;html=1;" vertex="1" parent="1">
          <mxGeometry x="40" y="80" width="120" height="60" as="geometry" />
        </mxCell>
        <mxCell id="NU_LfXqsbuH4mbQh31we-5" value="" style="edgeStyle=orthogonalEdgeStyle;rounded=0;orthogonalLoop=1;jettySize=auto;html=1;" edge="1" parent="1" source="NU_LfXqsbuH4mbQh31we-2" target="NU_LfXqsbuH4mbQh31we-4">
          <mxGeometry relative="1" as="geometry" />
        </mxCell>
        <mxCell id="NU_LfXqsbuH4mbQh31we-2" value="Agent" style="rounded=0;whiteSpace=wrap;html=1;" vertex="1" parent="1">
          <mxGeometry x="240" y="80" width="120" height="60" as="geometry" />
        </mxCell>
        <mxCell id="NU_LfXqsbuH4mbQh31we-4" value="Collector" style="rounded=0;whiteSpace=wrap;html=1;" vertex="1" parent="1">
          <mxGeometry x="440" y="80" width="120" height="60" as="geometry" />
        </mxCell>
      </root>
    </mxGraphModel>
  </diagram>
</mxfile>
